<svg xmlns="http://www.w3.org/2000/svg" xmlns:xlink="http://www.w3.org/1999/xlink" width="150" height="150" viewBox="0 0 150 150">
  <defs>
    <clipPath id="clip-path">
      <path id="Pfad_1196" data-name="Pfad 1196" d="M0-34.252H150v-150H0Z" transform="translate(0 184.252)" fill="none"/>
    </clipPath>
  </defs>
  <g id="Gruppe_547" data-name="Gruppe 547" transform="translate(0 0)">
    <g id="Gruppe_549" data-name="Gruppe 549" clip-path="url(#clip-path)">
      <g id="Gruppe_547-2" data-name="Gruppe 547">
        <path id="Pfad_1194" data-name="Pfad 1194" d="M-34.252-17.126a75,75,0,0,0-75-75,75,75,0,0,0-75,75,75,75,0,0,0,75,75,75,75,0,0,0,75-75m-12.5,0a62.5,62.5,0,0,1-62.5,62.5,62.5,62.5,0,0,1-62.5-62.5,62.5,62.5,0,0,1,62.5-62.5,62.5,62.5,0,0,1,62.5,62.5m-8.75,0a53.906,53.906,0,0,0-48.631-53.75v14.088h0V22.536h0V36.624A53.906,53.906,0,0,0-55.5-17.126m-13.75,0A39.975,39.975,0,0,1-90.382,18.14V-52.392a39.975,39.975,0,0,1,21.13,35.266m-58.87,50.556a53.237,53.237,0,0,0,13.751,3.195V22.536h0V-56.788h0V-70.876A53.906,53.906,0,0,0-163-17.126a53.907,53.907,0,0,0,12.983,35.171l9.829-9.829a39.836,39.836,0,0,1-8.463-18.467h20.532V33.43Zm0-57.431h-20.532a40.022,40.022,0,0,1,20.532-28.391Z" transform="translate(184.252 92.126)" fill="#fff"/>
      </g>
      <g id="Gruppe_548" data-name="Gruppe 548" transform="translate(56.782 137.715)">
        <path id="Pfad_1195" data-name="Pfad 1195" d="M-.4-1.813l1.641-7.54L.352-9.548l-2.22.453-.26,1.2L-.615-8.01-1.893-2.139ZM10.219-.562a3.188,3.188,0,0,0,1.169-1.379,6.484,6.484,0,0,0,.55-2.2A6.023,6.023,0,0,0,11.9-5.5a3.658,3.658,0,0,0-.4-1.247,2.592,2.592,0,0,0-.874-.941A3.074,3.074,0,0,0,9.193-8.14a2.721,2.721,0,0,0-1.421.234,2.545,2.545,0,0,0-1.029.866,2.6,2.6,0,0,0-.449,1.266A2.547,2.547,0,0,0,6.51-4.416a2.372,2.372,0,0,0,.807.946,2.392,2.392,0,0,0,1.158.413,2.346,2.346,0,0,0,.792-.063,2.158,2.158,0,0,0,.7-.314,1.871,1.871,0,0,0,.491-.477c0,.008,0,.026,0,.055s0,.055-.007.077a4.882,4.882,0,0,1-.348,1.369,1.867,1.867,0,0,1-.607.793A1.232,1.232,0,0,1,8.65-1.4a1.294,1.294,0,0,1-.8-.326A1.2,1.2,0,0,1,7.5-2.491L6.112-2.614A2.645,2.645,0,0,0,6.39-1.5a2.286,2.286,0,0,0,.79.889A2.794,2.794,0,0,0,8.52-.186a2.659,2.659,0,0,0,1.7-.375M8.272-4.5a1.161,1.161,0,0,1-.438-.493,1.341,1.341,0,0,1-.109-.7,1.328,1.328,0,0,1,.224-.655,1.172,1.172,0,0,1,.512-.408,1.414,1.414,0,0,1,.7-.1,1.459,1.459,0,0,1,.688.227,1.2,1.2,0,0,1,.437.5,1.322,1.322,0,0,1,.11.691,1.328,1.328,0,0,1-.23.655,1.148,1.148,0,0,1-.518.413,1.489,1.489,0,0,1-.706.1,1.469,1.469,0,0,1-.667-.22M23.432-.3l-.107-1.208-3.339.3q.4-.368.81-.786t.781-.872a7.49,7.49,0,0,0,.653-.938,4.487,4.487,0,0,0,.432-.985,2.661,2.661,0,0,0,.1-1.005,2.3,2.3,0,0,0-.407-1.164,2.186,2.186,0,0,0-.94-.736A2.931,2.931,0,0,0,20-7.875a3.1,3.1,0,0,0-1.3.4,2.187,2.187,0,0,0-.874.935,2.818,2.818,0,0,0-.247,1.45l1.428-.127a1.576,1.576,0,0,1,.073-.665,1.1,1.1,0,0,1,.354-.5,1.148,1.148,0,0,1,.633-.234,1.181,1.181,0,0,1,.656.1.951.951,0,0,1,.4.385,1.373,1.373,0,0,1,.165.555,2.008,2.008,0,0,1-.222,1.049,6.072,6.072,0,0,1-.75,1.157,15.858,15.858,0,0,1-1.1,1.22q-.615.619-1.279,1.242L18.04.18ZM34.4-2.211l-.3-1.369.98-.213-.274-1.26-.98.213L32.764-9.752l-1.649.359L28.7-3.609l.251,1.153,3.706-.807.3,1.369Zm-2.649-5.64.72,3.307-2.251.49Z" transform="translate(2.128 9.752)" fill="#5b2873"/>
      </g>
    </g>
  </g>
</svg>
